            <svg width="18" viewBox="0 0 773 1014" fill="none" xmlns="http://www.w3.org/2000/svg">
                <path
                    d="M386.096 0C283.733 0.118106 185.597 40.8339 113.215 113.215C40.8339 185.597 0.118106 283.733 0 386.096C0 665.955 278.1 922.046 363.319 993.859L386.974 1013.78L411.034 994.373C425.756 982.489 772.193 699.555 772.193 386.096C772.074 283.733 731.359 185.597 658.977 113.215C586.596 40.8339 488.459 0.118106 386.096 0V0ZM606.221 383.25C606.225 426.228 593.484 468.241 569.609 503.977C545.734 539.713 511.798 567.567 472.093 584.015C432.388 600.464 388.697 604.768 346.545 596.385C304.393 588.001 265.674 567.306 235.284 536.916C204.894 506.526 184.199 467.807 175.815 425.655C167.432 383.503 171.737 339.812 188.185 300.107C204.634 260.401 232.487 226.466 268.223 202.591C303.959 178.716 345.972 165.975 388.95 165.979C446.551 166.052 501.773 188.967 542.503 229.697C583.233 270.428 606.148 325.649 606.221 383.25Z"
                    fill="#C00407"></path>
            </svg>