<?xml version="1.0" encoding="UTF-8"?>
<!DOCTYPE svg PUBLIC "-//W3C//DTD SVG 1.1//EN" "http://www.w3.org/Graphics/SVG/1.1/DTD/svg11.dtd">
<!-- Creator: CorelDRAW 2020 (64-Bit) -->
<svg xmlns="http://www.w3.org/2000/svg" xml:space="preserve" width="16.9332mm" height="16.9332mm" version="1.1" style="shape-rendering:geometricPrecision; text-rendering:geometricPrecision; image-rendering:optimizeQuality; fill-rule:evenodd; clip-rule:evenodd"
viewBox="0 0 1693.32 1693.32"
 xmlns:xlink="http://www.w3.org/1999/xlink"
 xmlns:xodm="http://www.corel.com/coreldraw/odm/2003">
 <defs>
  <style type="text/css">
   <![CDATA[
    .fil0 {fill:#C00407}
   ]]>
  </style>
 </defs>
 <g id="Слой_x0020_1">
  <metadata id="CorelCorpID_0Corel-Layer"/>
  <path class="fil0" d="M846.66 0c-467.6,0 -846.66,379.06 -846.66,846.66 0,467.6 379.06,846.66 846.66,846.66 467.6,0 846.66,-379.06 846.66,-846.66 0,-467.6 -379.06,-846.66 -846.66,-846.66zm-416.87 903.26l505.04 505.04c31.13,31.13 82.07,31.13 113.2,0l0 0c31.13,-31.13 31.13,-82.07 0,-113.2l-448.44 -448.44 448.44 -448.44c31.13,-31.13 31.13,-82.07 0,-113.2l0 0c-31.13,-31.13 -82.07,-31.13 -113.2,0l-505.04 505.04 0 0c-31.13,31.13 -31.13,82.07 0,113.2z"/>
 </g>
</svg>
